# 3ds Max Wavefront OBJ Exporter v0.97b - (c)2007 guruware
# File Created: 15.04.2019 14:54:50

mtllib P.mtl

#
# object Torus001
#

v  198.4722 11.5930 -90.8971
v  198.4722 17.3896 -89.3439
v  209.2718 17.3896 -87.9221
v  209.6738 11.5930 -89.4224
v  198.4722 21.6330 -85.1005
v  208.1735 21.6330 -83.8233
v  198.4722 23.1861 -79.3039
v  206.6732 23.1861 -78.2242
v  198.4722 21.6330 -73.5074
v  205.1730 21.6330 -72.6252
v  198.4722 17.3896 -69.2640
v  204.0747 17.3896 -68.5264
v  198.4722 11.5930 -67.7108
v  203.6727 11.5930 -67.0261
v  198.4722 5.7964 -69.2640
v  204.0747 5.7964 -68.5264
v  198.4722 1.5530 -73.5074
v  205.1730 1.5530 -72.6252
v  198.4722 -0.0001 -79.3039
v  206.6732 -0.0001 -78.2242
v  198.4722 1.5530 -85.1005
v  208.1735 1.5530 -83.8233
v  198.4722 5.7964 -89.3439
v  209.2718 5.7964 -87.9221
v  219.3354 17.3896 -83.7536
v  220.1120 11.5930 -85.0987
v  217.2137 21.6330 -80.0787
v  214.3154 23.1861 -75.0588
v  211.4171 21.6330 -70.0388
v  209.2954 17.3896 -66.3639
v  208.5188 11.5930 -65.0188
v  209.2954 5.7964 -66.3639
v  211.4171 1.5530 -70.0388
v  214.3154 -0.0001 -75.0588
v  217.2137 1.5530 -80.0787
v  219.3354 5.7964 -83.7536
v  227.9772 17.3896 -77.1225
v  229.0755 11.5930 -78.2208
v  224.9767 21.6330 -74.1220
v  220.8779 23.1861 -70.0232
v  216.7791 21.6330 -65.9244
v  213.7786 17.3896 -62.9239
v  212.6803 11.5930 -61.8256
v  213.7786 5.7964 -62.9239
v  216.7791 1.5530 -65.9244
v  220.8779 -0.0001 -70.0232
v  224.9767 1.5530 -74.1220
v  227.9772 5.7964 -77.1225
v  234.6083 17.3896 -68.4807
v  235.9534 11.5930 -69.2573
v  230.9334 21.6330 -66.3590
v  225.9135 23.1861 -63.4607
v  220.8935 21.6330 -60.5624
v  217.2186 17.3896 -58.4407
v  215.8735 11.5930 -57.6641
v  217.2186 5.7964 -58.4407
v  220.8935 1.5530 -60.5624
v  225.9135 -0.0001 -63.4607
v  230.9334 1.5530 -66.3590
v  234.6083 5.7964 -68.4807
v  238.7768 17.3896 -58.4171
v  240.2771 11.5930 -58.8191
v  234.6780 21.6330 -57.3188
v  229.0789 23.1861 -55.8186
v  223.4799 21.6330 -54.3183
v  219.3811 17.3896 -53.2200
v  217.8808 11.5930 -52.8180
v  219.3811 5.7964 -53.2200
v  223.4799 1.5530 -54.3183
v  229.0789 -0.0001 -55.8186
v  234.6780 1.5530 -57.3188
v  238.7768 5.7964 -58.4171
v  240.1986 17.3896 -47.6175
v  241.7518 11.5930 -47.6175
v  235.9552 21.6330 -47.6175
v  230.1586 23.1861 -47.6175
v  224.3621 21.6330 -47.6175
v  220.1187 17.3896 -47.6175
v  218.5655 11.5930 -47.6175
v  220.1187 5.7964 -47.6175
v  224.3621 1.5530 -47.6175
v  230.1586 -0.0001 -47.6175
v  235.9552 1.5530 -47.6175
v  240.1986 5.7964 -47.6175
v  238.7768 17.3896 -36.8179
v  240.2771 11.5930 -36.4159
v  234.6780 21.6330 -37.9162
v  229.0789 23.1861 -39.4165
v  223.4799 21.6330 -40.9167
v  219.3811 17.3896 -42.0150
v  217.8808 11.5930 -42.4170
v  219.3811 5.7964 -42.0150
v  223.4799 1.5530 -40.9167
v  229.0789 -0.0001 -39.4165
v  234.6780 1.5530 -37.9162
v  238.7768 5.7964 -36.8179
v  234.6083 17.3896 -26.7543
v  235.9534 11.5930 -25.9777
v  230.9334 21.6330 -28.8760
v  225.9135 23.1861 -31.7743
v  220.8935 21.6330 -34.6726
v  217.2186 17.3896 -36.7943
v  215.8735 11.5930 -37.5709
v  217.2186 5.7964 -36.7943
v  220.8935 1.5530 -34.6726
v  225.9135 -0.0001 -31.7743
v  230.9334 1.5530 -28.8760
v  234.6083 5.7964 -26.7543
v  227.9772 17.3896 -18.1125
v  229.0755 11.5930 -17.0142
v  224.9767 21.6330 -21.1130
v  220.8779 23.1861 -25.2118
v  216.7791 21.6330 -29.3106
v  213.7786 17.3896 -32.3111
v  212.6803 11.5930 -33.4094
v  213.7786 5.7964 -32.3111
v  216.7791 1.5530 -29.3106
v  220.8779 -0.0001 -25.2118
v  224.9767 1.5530 -21.1130
v  227.9772 5.7964 -18.1125
v  219.3354 17.3896 -11.4814
v  220.1120 11.5930 -10.1363
v  217.2137 21.6330 -15.1563
v  214.3154 23.1861 -20.1763
v  211.4171 21.6330 -25.1962
v  209.2954 17.3896 -28.8711
v  208.5188 11.5930 -30.2162
v  209.2954 5.7964 -28.8711
v  211.4171 1.5530 -25.1962
v  214.3154 -0.0001 -20.1763
v  217.2137 1.5530 -15.1563
v  219.3354 5.7964 -11.4814
v  209.2718 17.3896 -7.3129
v  209.6738 11.5930 -5.8127
v  208.1735 21.6330 -11.4117
v  206.6732 23.1861 -17.0108
v  205.1730 21.6330 -22.6098
v  204.0747 17.3896 -26.7086
v  203.6727 11.5930 -28.2089
v  204.0747 5.7964 -26.7086
v  205.1730 1.5530 -22.6098
v  206.6732 -0.0001 -17.0108
v  208.1735 1.5530 -11.4117
v  209.2718 5.7964 -7.3129
v  198.4722 17.3896 -5.8911
v  198.4722 11.5930 -4.3379
v  198.4722 21.6330 -10.1345
v  198.4722 23.1861 -15.9311
v  198.4722 21.6330 -21.7276
v  198.4722 17.3896 -25.9710
v  198.4722 11.5930 -27.5242
v  198.4722 5.7964 -25.9710
v  198.4722 1.5530 -21.7276
v  198.4722 -0.0001 -15.9311
v  198.4722 1.5530 -10.1345
v  198.4722 5.7964 -5.8911
v  178.5365 0.0000 48.1485
v  178.5365 0.0000 -90.8971
v  198.4722 0.0000 -90.8971
v  198.4722 0.0000 48.1485
v  178.5365 23.1860 48.1485
v  198.4722 23.1860 48.1485
v  198.4722 23.1860 -90.8971
v  178.5365 23.1860 -90.8971
# 164 vertices

vn 0.1305 0.0000 -0.9914
vn 0.1140 0.4877 -0.8655
vn 0.2255 0.4909 -0.8415
vn 0.2588 0.0000 -0.9659
vn 0.0678 0.8547 -0.5146
vn 0.1335 0.8567 -0.4982
vn 0.0028 0.9998 -0.0216
vn 0.0056 0.9998 -0.0208
vn -0.0635 0.8736 0.4825
vn -0.1251 0.8753 0.4670
vn -0.1126 0.5063 0.8550
vn -0.2227 0.5096 0.8311
vn -0.1305 0.0000 0.9914
vn -0.2588 0.0000 0.9659
vn -0.1126 -0.5063 0.8550
vn -0.2227 -0.5095 0.8311
vn -0.0635 -0.8736 0.4825
vn -0.1251 -0.8753 0.4670
vn 0.0028 -0.9998 -0.0216
vn 0.0056 -0.9998 -0.0208
vn 0.0678 -0.8547 -0.5146
vn 0.1335 -0.8567 -0.4982
vn 0.1140 -0.4877 -0.8655
vn 0.2255 -0.4909 -0.8415
vn 0.4356 0.4909 -0.7545
vn 0.5000 0.0000 -0.8660
vn 0.2579 0.8567 -0.4467
vn 0.0108 0.9998 -0.0187
vn -0.2417 0.8753 0.4187
vn -0.4302 0.5096 0.7452
vn -0.5000 0.0000 0.8660
vn -0.4302 -0.5096 0.7452
vn -0.2417 -0.8753 0.4187
vn 0.0108 -0.9998 -0.0187
vn 0.2579 -0.8567 -0.4467
vn 0.4356 -0.4909 -0.7545
vn 0.6160 0.4909 -0.6160
vn 0.7071 0.0000 -0.7071
vn 0.3647 0.8567 -0.3647
vn 0.0152 0.9998 -0.0152
vn -0.3419 0.8753 0.3419
vn -0.6084 0.5096 0.6084
vn -0.7071 0.0000 0.7071
vn -0.6084 -0.5095 0.6084
vn -0.3419 -0.8753 0.3419
vn 0.0152 -0.9998 -0.0152
vn 0.3647 -0.8567 -0.3647
vn 0.6160 -0.4909 -0.6160
vn 0.7545 0.4909 -0.4356
vn 0.8660 0.0000 -0.5000
vn 0.4467 0.8567 -0.2579
vn 0.0187 0.9998 -0.0108
vn -0.4187 0.8753 0.2417
vn -0.7452 0.5096 0.4302
vn -0.8660 0.0000 0.5000
vn -0.7452 -0.5095 0.4302
vn -0.4187 -0.8753 0.2417
vn 0.0187 -0.9998 -0.0108
vn 0.4467 -0.8567 -0.2579
vn 0.7545 -0.4909 -0.4356
vn 0.8415 0.4909 -0.2255
vn 0.9659 0.0000 -0.2588
vn 0.4982 0.8567 -0.1335
vn 0.0208 0.9998 -0.0056
vn -0.4670 0.8753 0.1251
vn -0.8311 0.5096 0.2227
vn -0.9659 0.0000 0.2588
vn -0.8311 -0.5095 0.2227
vn -0.4670 -0.8753 0.1251
vn 0.0208 -0.9998 -0.0056
vn 0.4982 -0.8567 -0.1335
vn 0.8415 -0.4909 -0.2255
vn 0.8712 0.4909 -0.0000
vn 1.0000 0.0000 -0.0000
vn 0.5158 0.8567 0.0000
vn 0.0216 0.9998 -0.0000
vn -0.4835 0.8753 -0.0000
vn -0.8604 0.5096 0.0000
vn -1.0000 0.0000 0.0000
vn -0.8604 -0.5095 -0.0000
vn -0.4835 -0.8753 -0.0000
vn 0.0216 -0.9998 -0.0000
vn 0.5158 -0.8567 -0.0000
vn 0.8712 -0.4909 0.0000
vn 0.8415 0.4909 0.2255
vn 0.9659 0.0000 0.2588
vn 0.4982 0.8567 0.1335
vn 0.0208 0.9998 0.0056
vn -0.4670 0.8753 -0.1251
vn -0.8311 0.5096 -0.2227
vn -0.9659 0.0000 -0.2588
vn -0.8311 -0.5095 -0.2227
vn -0.4670 -0.8753 -0.1251
vn 0.0208 -0.9998 0.0056
vn 0.4982 -0.8567 0.1335
vn 0.8415 -0.4909 0.2255
vn 0.7545 0.4909 0.4356
vn 0.8660 0.0000 0.5000
vn 0.4467 0.8567 0.2579
vn 0.0187 0.9998 0.0108
vn -0.4187 0.8753 -0.2417
vn -0.7452 0.5096 -0.4302
vn -0.8660 0.0000 -0.5000
vn -0.7452 -0.5095 -0.4302
vn -0.4187 -0.8753 -0.2417
vn 0.0187 -0.9998 0.0108
vn 0.4467 -0.8567 0.2579
vn 0.7545 -0.4909 0.4356
vn 0.6160 0.4909 0.6160
vn 0.7071 0.0000 0.7071
vn 0.3647 0.8567 0.3647
vn 0.0152 0.9998 0.0152
vn -0.3419 0.8753 -0.3419
vn -0.6084 0.5096 -0.6084
vn -0.7071 0.0000 -0.7071
vn -0.6084 -0.5095 -0.6084
vn -0.3419 -0.8753 -0.3419
vn 0.0152 -0.9998 0.0152
vn 0.3647 -0.8567 0.3647
vn 0.6160 -0.4909 0.6160
vn 0.4356 0.4909 0.7545
vn 0.5000 0.0000 0.8660
vn 0.2579 0.8567 0.4467
vn 0.0108 0.9998 0.0187
vn -0.2417 0.8753 -0.4187
vn -0.4302 0.5096 -0.7452
vn -0.5000 0.0000 -0.8660
vn -0.4302 -0.5095 -0.7452
vn -0.2417 -0.8753 -0.4187
vn 0.0108 -0.9998 0.0187
vn 0.2579 -0.8567 0.4467
vn 0.4356 -0.4909 0.7545
vn 0.2255 0.4909 0.8415
vn 0.2588 0.0000 0.9659
vn 0.1335 0.8567 0.4982
vn 0.0056 0.9998 0.0208
vn -0.1251 0.8753 -0.4670
vn -0.2227 0.5096 -0.8311
vn -0.2588 0.0000 -0.9659
vn -0.2227 -0.5095 -0.8311
vn -0.1251 -0.8753 -0.4670
vn 0.0056 -0.9998 0.0208
vn 0.1335 -0.8567 0.4982
vn 0.2255 -0.4909 0.8415
vn 0.1140 0.4877 0.8655
vn 0.1305 0.0000 0.9914
vn 0.0678 0.8547 0.5146
vn 0.0028 0.9998 0.0216
vn -0.0635 0.8736 -0.4825
vn -0.1126 0.5063 -0.8550
vn -0.1305 0.0000 -0.9914
vn -0.1126 -0.5063 -0.8550
vn -0.0635 -0.8736 -0.4825
vn 0.0028 -0.9998 0.0216
vn 0.0678 -0.8547 0.5146
vn 0.1140 -0.4877 0.8655
vn 0.0000 -1.0000 -0.0000
vn 0.0000 1.0000 -0.0000
vn 0.0000 0.0000 1.0000
vn 0.0000 0.0000 -1.0000
vn -1.0000 0.0000 -0.0000
# 161 vertex normals

vt 0.3154 1.0000 0.5000
vt 0.3154 0.9888 0.7500
vt 0.4862 0.9786 0.7500
vt 0.4926 0.9894 0.5000
vt 0.3154 0.9583 0.9330
vt 0.4688 0.9491 0.9330
vt 0.3154 0.9166 1.0000
vt 0.4451 0.9089 1.0000
vt 0.3154 0.8749 0.9330
vt 0.4214 0.8686 0.9330
vt 0.3154 0.8444 0.7500
vt 0.4040 0.8391 0.7500
vt 0.3154 0.8332 0.5000
vt 0.3976 0.8283 0.5000
vt 0.3154 0.8444 0.2500
vt 0.4040 0.8391 0.2500
vt 0.3154 0.8749 0.0670
vt 0.4214 0.8686 0.0670
vt 0.3154 0.9166 0.0000
vt 0.4451 0.9089 0.0000
vt 0.3154 0.9583 0.0670
vt 0.4688 0.9491 0.0670
vt 0.3154 0.9888 0.2500
vt 0.4862 0.9786 0.2500
vt 0.6454 0.9486 0.7500
vt 0.6577 0.9583 0.5000
vt 0.6118 0.9222 0.9330
vt 0.5660 0.8861 1.0000
vt 0.5201 0.8500 0.9330
vt 0.4866 0.8236 0.7500
vt 0.4743 0.8139 0.5000
vt 0.4866 0.8236 0.2500
vt 0.5201 0.8500 0.0670
vt 0.5660 0.8861 0.0000
vt 0.6118 0.9222 0.0670
vt 0.6454 0.9486 0.2500
vt 0.7821 0.9009 0.7500
vt 0.7995 0.9088 0.5000
vt 0.7346 0.8794 0.9330
vt 0.6698 0.8499 1.0000
vt 0.6050 0.8204 0.9330
vt 0.5575 0.7988 0.7500
vt 0.5401 0.7909 0.5000
vt 0.5575 0.7988 0.2500
vt 0.6050 0.8204 0.0670
vt 0.6698 0.8499 0.0000
vt 0.7346 0.8794 0.0670
vt 0.7821 0.9009 0.2500
vt 0.8870 0.8388 0.7500
vt 0.9083 0.8444 0.5000
vt 0.8289 0.8235 0.9330
vt 0.7495 0.8027 1.0000
vt 0.6700 0.7818 0.9330
vt 0.6119 0.7666 0.7500
vt 0.5906 0.7610 0.5000
vt 0.6119 0.7666 0.2500
vt 0.6700 0.7818 0.0670
vt 0.7495 0.8027 0.0000
vt 0.8289 0.8235 0.0670
vt 0.8870 0.8388 0.2500
vt 0.9529 0.7664 0.7500
vt 0.9767 0.7693 0.5000
vt 0.8881 0.7585 0.9330
vt 0.7995 0.7477 1.0000
vt 0.7110 0.7369 0.9330
vt 0.6461 0.7290 0.7500
vt 0.6224 0.7261 0.5000
vt 0.6461 0.7290 0.2500
vt 0.7110 0.7369 0.0670
vt 0.7995 0.7477 0.0000
vt 0.8881 0.7585 0.0670
vt 0.9529 0.7664 0.2500
vt 0.9754 0.6887 0.7500
vt 1.0000 0.6887 0.5000
vt 0.9083 0.6887 0.9330
vt 0.8166 0.6887 1.0000
vt 0.7249 0.6887 0.9330
vt 0.6578 0.6887 0.7500
vt 0.6332 0.6887 0.5000
vt 0.6578 0.6887 0.2500
vt 0.7249 0.6887 0.0670
vt 0.8166 0.6887 0.0000
vt 0.9083 0.6887 0.0670
vt 0.9754 0.6887 0.2500
vt 0.9529 0.6111 0.7500
vt 0.9767 0.6082 0.5000
vt 0.8881 0.6190 0.9330
vt 0.7995 0.6298 1.0000
vt 0.7110 0.6405 0.9330
vt 0.6461 0.6484 0.7500
vt 0.6224 0.6513 0.5000
vt 0.6461 0.6484 0.2500
vt 0.7110 0.6405 0.0670
vt 0.7995 0.6298 0.0000
vt 0.8881 0.6190 0.0670
vt 0.9529 0.6111 0.2500
vt 0.8870 0.5387 0.7500
vt 0.9083 0.5331 0.5000
vt 0.8289 0.5540 0.9330
vt 0.7495 0.5748 1.0000
vt 0.6700 0.5956 0.9330
vt 0.6119 0.6109 0.7500
vt 0.5906 0.6165 0.5000
vt 0.6119 0.6109 0.2500
vt 0.6700 0.5956 0.0670
vt 0.7495 0.5748 0.0000
vt 0.8289 0.5540 0.0670
vt 0.8870 0.5387 0.2500
vt 0.7821 0.4765 0.7500
vt 0.7995 0.4686 0.5000
vt 0.7346 0.4981 0.9330
vt 0.6698 0.5276 1.0000
vt 0.6050 0.5571 0.9330
vt 0.5575 0.5787 0.7500
vt 0.5401 0.5866 0.5000
vt 0.5575 0.5787 0.2500
vt 0.6050 0.5571 0.0670
vt 0.6698 0.5276 0.0000
vt 0.7346 0.4981 0.0670
vt 0.7821 0.4765 0.2500
vt 0.6454 0.4289 0.7500
vt 0.6577 0.4192 0.5000
vt 0.6118 0.4553 0.9330
vt 0.5660 0.4914 1.0000
vt 0.5201 0.5275 0.9330
vt 0.4866 0.5539 0.7500
vt 0.4743 0.5636 0.5000
vt 0.4866 0.5539 0.2500
vt 0.5201 0.5275 0.0670
vt 0.5660 0.4914 0.0000
vt 0.6118 0.4553 0.0670
vt 0.6454 0.4289 0.2500
vt 0.4862 0.3989 0.7500
vt 0.4926 0.3881 0.5000
vt 0.4688 0.4284 0.9330
vt 0.4451 0.4686 1.0000
vt 0.4214 0.5089 0.9330
vt 0.4040 0.5384 0.7500
vt 0.3976 0.5492 0.5000
vt 0.4040 0.5384 0.2500
vt 0.4214 0.5089 0.0670
vt 0.4451 0.4686 0.0000
vt 0.4688 0.4284 0.0670
vt 0.4862 0.3989 0.2500
vt 0.3154 0.3886 0.7500
vt 0.3154 0.3775 0.5000
vt 0.3154 0.4192 0.9330
vt 0.3154 0.4609 1.0000
vt 0.3154 0.5025 0.9330
vt 0.3154 0.5331 0.7500
vt 0.3154 0.5442 0.5000
vt 0.3154 0.5331 0.2500
vt 0.3154 0.5025 0.0670
vt 0.3154 0.4609 0.0000
vt 0.3154 0.4192 0.0670
vt 0.3154 0.3886 0.2500
vt 0.0000 0.0000 0.0000
vt 0.0000 1.0000 0.0000
vt 0.3154 1.0000 0.0000
vt 0.3154 0.0000 0.0000
vt 0.0000 0.0000 1.0000
vt 0.3154 0.0000 1.0000
vt 0.3154 1.0000 1.0000
vt 0.0000 1.0000 1.0000
# 164 texture coords

o Torus001
g Torus001
usemtl Material__49
f 1/1/1 2/2/2 3/3/3 
f 3/3/3 4/4/4 1/1/1 
f 2/2/2 5/5/5 6/6/6 
f 6/6/6 3/3/3 2/2/2 
f 5/5/5 7/7/7 8/8/8 
f 8/8/8 6/6/6 5/5/5 
f 7/7/7 9/9/9 10/10/10 
f 10/10/10 8/8/8 7/7/7 
f 9/9/9 11/11/11 12/12/12 
f 12/12/12 10/10/10 9/9/9 
f 11/11/11 13/13/13 14/14/14 
f 14/14/14 12/12/12 11/11/11 
f 13/13/13 15/15/15 16/16/16 
f 16/16/16 14/14/14 13/13/13 
f 15/15/15 17/17/17 18/18/18 
f 18/18/18 16/16/16 15/15/15 
f 17/17/17 19/19/19 20/20/20 
f 20/20/20 18/18/18 17/17/17 
f 19/19/19 21/21/21 22/22/22 
f 22/22/22 20/20/20 19/19/19 
f 21/21/21 23/23/23 24/24/24 
f 24/24/24 22/22/22 21/21/21 
f 23/23/23 1/1/1 4/4/4 
f 4/4/4 24/24/24 23/23/23 
f 4/4/4 3/3/3 25/25/25 
f 25/25/25 26/26/26 4/4/4 
f 3/3/3 6/6/6 27/27/27 
f 27/27/27 25/25/25 3/3/3 
f 6/6/6 8/8/8 28/28/28 
f 28/28/28 27/27/27 6/6/6 
f 8/8/8 10/10/10 29/29/29 
f 29/29/29 28/28/28 8/8/8 
f 10/10/10 12/12/12 30/30/30 
f 30/30/30 29/29/29 10/10/10 
f 12/12/12 14/14/14 31/31/31 
f 31/31/31 30/30/30 12/12/12 
f 14/14/14 16/16/16 32/32/32 
f 32/32/32 31/31/31 14/14/14 
f 16/16/16 18/18/18 33/33/33 
f 33/33/33 32/32/32 16/16/16 
f 18/18/18 20/20/20 34/34/34 
f 34/34/34 33/33/33 18/18/18 
f 20/20/20 22/22/22 35/35/35 
f 35/35/35 34/34/34 20/20/20 
f 22/22/22 24/24/24 36/36/36 
f 36/36/36 35/35/35 22/22/22 
f 24/24/24 4/4/4 26/26/26 
f 26/26/26 36/36/36 24/24/24 
f 26/26/26 25/25/25 37/37/37 
f 37/37/37 38/38/38 26/26/26 
f 25/25/25 27/27/27 39/39/39 
f 39/39/39 37/37/37 25/25/25 
f 27/27/27 28/28/28 40/40/40 
f 40/40/40 39/39/39 27/27/27 
f 28/28/28 29/29/29 41/41/41 
f 41/41/41 40/40/40 28/28/28 
f 29/29/29 30/30/30 42/42/42 
f 42/42/42 41/41/41 29/29/29 
f 30/30/30 31/31/31 43/43/43 
f 43/43/43 42/42/42 30/30/30 
f 31/31/31 32/32/32 44/44/44 
f 44/44/44 43/43/43 31/31/31 
f 32/32/32 33/33/33 45/45/45 
f 45/45/45 44/44/44 32/32/32 
f 33/33/33 34/34/34 46/46/46 
f 46/46/46 45/45/45 33/33/33 
f 34/34/34 35/35/35 47/47/47 
f 47/47/47 46/46/46 34/34/34 
f 35/35/35 36/36/36 48/48/48 
f 48/48/48 47/47/47 35/35/35 
f 36/36/36 26/26/26 38/38/38 
f 38/38/38 48/48/48 36/36/36 
f 38/38/38 37/37/37 49/49/49 
f 49/49/49 50/50/50 38/38/38 
f 37/37/37 39/39/39 51/51/51 
f 51/51/51 49/49/49 37/37/37 
f 39/39/39 40/40/40 52/52/52 
f 52/52/52 51/51/51 39/39/39 
f 40/40/40 41/41/41 53/53/53 
f 53/53/53 52/52/52 40/40/40 
f 41/41/41 42/42/42 54/54/54 
f 54/54/54 53/53/53 41/41/41 
f 42/42/42 43/43/43 55/55/55 
f 55/55/55 54/54/54 42/42/42 
f 43/43/43 44/44/44 56/56/56 
f 56/56/56 55/55/55 43/43/43 
f 44/44/44 45/45/45 57/57/57 
f 57/57/57 56/56/56 44/44/44 
f 45/45/45 46/46/46 58/58/58 
f 58/58/58 57/57/57 45/45/45 
f 46/46/46 47/47/47 59/59/59 
f 59/59/59 58/58/58 46/46/46 
f 47/47/47 48/48/48 60/60/60 
f 60/60/60 59/59/59 47/47/47 
f 48/48/48 38/38/38 50/50/50 
f 50/50/50 60/60/60 48/48/48 
f 50/50/50 49/49/49 61/61/61 
f 61/61/61 62/62/62 50/50/50 
f 49/49/49 51/51/51 63/63/63 
f 63/63/63 61/61/61 49/49/49 
f 51/51/51 52/52/52 64/64/64 
f 64/64/64 63/63/63 51/51/51 
f 52/52/52 53/53/53 65/65/65 
f 65/65/65 64/64/64 52/52/52 
f 53/53/53 54/54/54 66/66/66 
f 66/66/66 65/65/65 53/53/53 
f 54/54/54 55/55/55 67/67/67 
f 67/67/67 66/66/66 54/54/54 
f 55/55/55 56/56/56 68/68/68 
f 68/68/68 67/67/67 55/55/55 
f 56/56/56 57/57/57 69/69/69 
f 69/69/69 68/68/68 56/56/56 
f 57/57/57 58/58/58 70/70/70 
f 70/70/70 69/69/69 57/57/57 
f 58/58/58 59/59/59 71/71/71 
f 71/71/71 70/70/70 58/58/58 
f 59/59/59 60/60/60 72/72/72 
f 72/72/72 71/71/71 59/59/59 
f 60/60/60 50/50/50 62/62/62 
f 62/62/62 72/72/72 60/60/60 
f 62/62/62 61/61/61 73/73/73 
f 73/73/73 74/74/74 62/62/62 
f 61/61/61 63/63/63 75/75/75 
f 75/75/75 73/73/73 61/61/61 
f 63/63/63 64/64/64 76/76/76 
f 76/76/76 75/75/75 63/63/63 
f 64/64/64 65/65/65 77/77/77 
f 77/77/77 76/76/76 64/64/64 
f 65/65/65 66/66/66 78/78/78 
f 78/78/78 77/77/77 65/65/65 
f 66/66/66 67/67/67 79/79/79 
f 79/79/79 78/78/78 66/66/66 
f 67/67/67 68/68/68 80/80/80 
f 80/80/80 79/79/79 67/67/67 
f 68/68/68 69/69/69 81/81/81 
f 81/81/81 80/80/80 68/68/68 
f 69/69/69 70/70/70 82/82/82 
f 82/82/82 81/81/81 69/69/69 
f 70/70/70 71/71/71 83/83/83 
f 83/83/83 82/82/82 70/70/70 
f 71/71/71 72/72/72 84/84/84 
f 84/84/84 83/83/83 71/71/71 
f 72/72/72 62/62/62 74/74/74 
f 74/74/74 84/84/84 72/72/72 
f 74/74/74 73/73/73 85/85/85 
f 85/85/85 86/86/86 74/74/74 
f 73/73/73 75/75/75 87/87/87 
f 87/87/87 85/85/85 73/73/73 
f 75/75/75 76/76/76 88/88/88 
f 88/88/88 87/87/87 75/75/75 
f 76/76/76 77/77/77 89/89/89 
f 89/89/89 88/88/88 76/76/76 
f 77/77/77 78/78/78 90/90/90 
f 90/90/90 89/89/89 77/77/77 
f 78/78/78 79/79/79 91/91/91 
f 91/91/91 90/90/90 78/78/78 
f 79/79/79 80/80/80 92/92/92 
f 92/92/92 91/91/91 79/79/79 
f 80/80/80 81/81/81 93/93/93 
f 93/93/93 92/92/92 80/80/80 
f 81/81/81 82/82/82 94/94/94 
f 94/94/94 93/93/93 81/81/81 
f 82/82/82 83/83/83 95/95/95 
f 95/95/95 94/94/94 82/82/82 
f 83/83/83 84/84/84 96/96/96 
f 96/96/96 95/95/95 83/83/83 
f 84/84/84 74/74/74 86/86/86 
f 86/86/86 96/96/96 84/84/84 
f 86/86/86 85/85/85 97/97/97 
f 97/97/97 98/98/98 86/86/86 
f 85/85/85 87/87/87 99/99/99 
f 99/99/99 97/97/97 85/85/85 
f 87/87/87 88/88/88 100/100/100 
f 100/100/100 99/99/99 87/87/87 
f 88/88/88 89/89/89 101/101/101 
f 101/101/101 100/100/100 88/88/88 
f 89/89/89 90/90/90 102/102/102 
f 102/102/102 101/101/101 89/89/89 
f 90/90/90 91/91/91 103/103/103 
f 103/103/103 102/102/102 90/90/90 
f 91/91/91 92/92/92 104/104/104 
f 104/104/104 103/103/103 91/91/91 
f 92/92/92 93/93/93 105/105/105 
f 105/105/105 104/104/104 92/92/92 
f 93/93/93 94/94/94 106/106/106 
f 106/106/106 105/105/105 93/93/93 
f 94/94/94 95/95/95 107/107/107 
f 107/107/107 106/106/106 94/94/94 
f 95/95/95 96/96/96 108/108/108 
f 108/108/108 107/107/107 95/95/95 
f 96/96/96 86/86/86 98/98/98 
f 98/98/98 108/108/108 96/96/96 
f 98/98/98 97/97/97 109/109/109 
f 109/109/109 110/110/110 98/98/98 
f 97/97/97 99/99/99 111/111/111 
f 111/111/111 109/109/109 97/97/97 
f 99/99/99 100/100/100 112/112/112 
f 112/112/112 111/111/111 99/99/99 
f 100/100/100 101/101/101 113/113/113 
f 113/113/113 112/112/112 100/100/100 
f 101/101/101 102/102/102 114/114/114 
f 114/114/114 113/113/113 101/101/101 
f 102/102/102 103/103/103 115/115/115 
f 115/115/115 114/114/114 102/102/102 
f 103/103/103 104/104/104 116/116/116 
f 116/116/116 115/115/115 103/103/103 
f 104/104/104 105/105/105 117/117/117 
f 117/117/117 116/116/116 104/104/104 
f 105/105/105 106/106/106 118/118/118 
f 118/118/118 117/117/117 105/105/105 
f 106/106/106 107/107/107 119/119/119 
f 119/119/119 118/118/118 106/106/106 
f 107/107/107 108/108/108 120/120/120 
f 120/120/120 119/119/119 107/107/107 
f 108/108/108 98/98/98 110/110/110 
f 110/110/110 120/120/120 108/108/108 
f 110/110/110 109/109/109 121/121/121 
f 121/121/121 122/122/122 110/110/110 
f 109/109/109 111/111/111 123/123/123 
f 123/123/123 121/121/121 109/109/109 
f 111/111/111 112/112/112 124/124/124 
f 124/124/124 123/123/123 111/111/111 
f 112/112/112 113/113/113 125/125/125 
f 125/125/125 124/124/124 112/112/112 
f 113/113/113 114/114/114 126/126/126 
f 126/126/126 125/125/125 113/113/113 
f 114/114/114 115/115/115 127/127/127 
f 127/127/127 126/126/126 114/114/114 
f 115/115/115 116/116/116 128/128/128 
f 128/128/128 127/127/127 115/115/115 
f 116/116/116 117/117/117 129/129/129 
f 129/129/129 128/128/128 116/116/116 
f 117/117/117 118/118/118 130/130/130 
f 130/130/130 129/129/129 117/117/117 
f 118/118/118 119/119/119 131/131/131 
f 131/131/131 130/130/130 118/118/118 
f 119/119/119 120/120/120 132/132/132 
f 132/132/132 131/131/131 119/119/119 
f 120/120/120 110/110/110 122/122/122 
f 122/122/122 132/132/132 120/120/120 
f 122/122/122 121/121/121 133/133/133 
f 133/133/133 134/134/134 122/122/122 
f 121/121/121 123/123/123 135/135/135 
f 135/135/135 133/133/133 121/121/121 
f 123/123/123 124/124/124 136/136/136 
f 136/136/136 135/135/135 123/123/123 
f 124/124/124 125/125/125 137/137/137 
f 137/137/137 136/136/136 124/124/124 
f 125/125/125 126/126/126 138/138/138 
f 138/138/138 137/137/137 125/125/125 
f 126/126/126 127/127/127 139/139/139 
f 139/139/139 138/138/138 126/126/126 
f 127/127/127 128/128/128 140/140/140 
f 140/140/140 139/139/139 127/127/127 
f 128/128/128 129/129/129 141/141/141 
f 141/141/141 140/140/140 128/128/128 
f 129/129/129 130/130/130 142/142/142 
f 142/142/142 141/141/141 129/129/129 
f 130/130/130 131/131/131 143/143/143 
f 143/143/143 142/142/142 130/130/130 
f 131/131/131 132/132/132 144/144/144 
f 144/144/144 143/143/143 131/131/131 
f 132/132/132 122/122/122 134/134/134 
f 134/134/134 144/144/144 132/132/132 
f 134/134/134 133/133/133 145/145/145 
f 145/145/145 146/146/146 134/134/134 
f 133/133/133 135/135/135 147/147/147 
f 147/147/147 145/145/145 133/133/133 
f 135/135/135 136/136/136 148/148/148 
f 148/148/148 147/147/147 135/135/135 
f 136/136/136 137/137/137 149/149/149 
f 149/149/149 148/148/148 136/136/136 
f 137/137/137 138/138/138 150/150/150 
f 150/150/150 149/149/149 137/137/137 
f 138/138/138 139/139/139 151/151/151 
f 151/151/151 150/150/150 138/138/138 
f 139/139/139 140/140/140 152/152/152 
f 152/152/152 151/151/151 139/139/139 
f 140/140/140 141/141/141 153/153/153 
f 153/153/153 152/152/152 140/140/140 
f 141/141/141 142/142/142 154/154/154 
f 154/154/154 153/153/153 141/141/141 
f 142/142/142 143/143/143 155/155/155 
f 155/155/155 154/154/154 142/142/142 
f 143/143/143 144/144/144 156/156/156 
f 156/156/156 155/155/155 143/143/143 
f 144/144/144 134/134/134 146/146/146 
f 146/146/146 156/156/156 144/144/144 
f 157/157/157 158/158/157 159/159/157 
f 159/159/157 160/160/157 157/157/157 
f 161/161/158 162/162/158 163/163/158 
f 163/163/158 164/164/158 161/161/158 
f 157/157/159 160/160/159 162/162/159 
f 162/162/159 161/161/159 157/157/159 
f 160/160/74 159/159/74 163/163/74 
f 163/163/74 162/162/74 160/160/74 
f 159/159/160 158/158/160 164/164/160 
f 164/164/160 163/163/160 159/159/160 
f 158/158/161 157/157/161 161/161/161 
f 161/161/161 164/164/161 158/158/161 
# 300 faces

