# 3ds Max Wavefront OBJ Exporter v0.97b - (c)2007 guruware
# File Created: 15.04.2019 14:54:30

mtllib C__.mtl

#
# object Tube001
#

v  17.5198 36.0129 -47.6851
v  17.5198 30.1211 -47.6851
v  3.4436 30.1211 -50.1672
v  0.3117 43.9913 -43.1580
v  0.3117 43.9913 -35.8884
v  5.0008 43.9913 -35.0616
v  7.4871 43.9913 -41.8928
v  0.3117 36.0129 -28.3270
v  0.3117 30.1211 -28.3270
v  8.1232 30.1211 -26.9496
v  17.5198 36.0129 46.8725
v  17.5198 30.1211 46.8725
v  29.8983 30.1211 39.7258
v  21.2436 43.9913 36.1240
v  16.5708 43.9913 30.5552
v  12.4473 43.9913 32.9359
v  14.9337 43.9913 39.7671
v  18.2588 36.0129 20.9821
v  18.2588 30.1211 20.9821
v  11.3895 30.1211 24.9481
v  0.3117 36.0129 49.9067
v  0.3117 30.1211 49.9067
v  14.3880 30.1211 47.4247
v  0.3117 43.9913 35.0757
v  0.3117 43.9913 42.3453
v  9.8612 36.0129 25.8305
v  9.8612 30.1211 25.8305
v  2.0497 30.1211 27.2079
v  -16.8964 36.0129 46.8725
v  -16.8964 30.1211 46.8725
v  -2.8201 30.1211 49.3545
v  -11.8238 43.9913 32.9359
v  -14.3102 43.9913 39.7671
v  0.3117 36.0129 27.5143
v  0.3117 30.1211 27.5143
v  -7.4997 30.1211 26.1369
v  -32.0289 36.0129 38.1357
v  -32.0289 30.1211 38.1357
v  -19.6504 30.1211 45.2824
v  -22.4957 43.9913 26.7745
v  -27.1685 43.9913 32.3433
v  -9.2377 36.0129 25.8305
v  -9.2377 30.1211 25.8305
v  -16.1069 30.1211 21.8645
v  -43.2607 36.0129 24.7502
v  -43.2607 30.1211 24.7502
v  -34.0730 30.1211 35.6996
v  -30.4166 43.9913 17.3347
v  -36.7123 43.9913 20.9695
v  -17.6353 36.0129 20.9821
v  -17.6353 30.1211 20.9821
v  -22.7339 30.1211 14.9059
v  -49.2369 36.0129 8.3304
v  -49.2369 30.1211 8.3304
v  -44.3483 30.1211 21.7618
v  -34.6312 43.9913 5.7551
v  -41.7904 43.9913 7.0174
v  -23.8682 36.0129 13.5540
v  -23.8682 30.1211 13.5540
v  -26.5811 30.1211 6.1004
v  -49.2369 36.0129 -9.1431
v  -49.2369 30.1211 -9.1431
v  -49.2369 30.1211 5.1503
v  -34.6312 43.9913 -6.5677
v  -41.7904 43.9913 -7.8301
v  -27.1847 36.0129 4.4420
v  -27.1847 30.1211 4.4420
v  -27.1847 30.1211 -3.4899
v  -43.2606 36.0129 -25.5629
v  -43.2606 30.1211 -25.5629
v  -48.1493 30.1211 -12.1315
v  -30.4166 43.9913 -18.1473
v  -36.7123 43.9913 -21.7821
v  -27.1847 36.0129 -5.2547
v  -27.1847 30.1211 -5.2547
v  -24.4718 30.1211 -12.7083
v  -32.0289 36.0129 -38.9484
v  -32.0289 30.1211 -38.9484
v  -41.2165 30.1211 -27.9990
v  -22.4957 43.9913 -27.5871
v  -27.1685 43.9913 -33.1560
v  -23.8682 36.0129 -14.3666
v  -23.8682 30.1211 -14.3666
v  -18.7697 30.1211 -20.4429
v  -16.8963 36.0129 -47.6851
v  -16.8963 30.1211 -47.6851
v  -29.2748 30.1211 -40.5384
v  -11.8238 43.9913 -33.7485
v  -14.3102 43.9913 -40.5797
v  -17.6353 36.0129 -21.7948
v  -17.6353 30.1211 -21.7948
v  -10.7660 30.1211 -25.7607
v  0.3117 36.0129 -50.7194
v  0.3117 30.1211 -50.7194
v  -13.7645 30.1211 -48.2374
v  -9.2377 36.0129 -26.6431
v  -9.2377 30.1211 -26.6431
v  -1.4262 30.1211 -28.0205
v  32.6523 36.0129 38.1357
v  9.8612 36.0129 -26.6431
v  9.8612 30.1211 -26.6431
v  32.6523 30.1211 38.1357
v  17.5198 24.2294 -47.6851
v  0.3117 16.2510 -35.8884
v  0.3117 16.2510 -43.1580
v  5.0008 16.2510 -35.0616
v  7.4871 16.2510 -41.8928
v  0.3117 24.2294 -28.3270
v  17.5198 24.2294 46.8725
v  16.5708 16.2510 30.5552
v  21.2436 16.2510 36.1240
v  12.4473 16.2510 32.9359
v  14.9337 16.2510 39.7671
v  18.2588 24.2294 20.9821
v  0.3117 24.2294 49.9067
v  0.3117 16.2510 35.0757
v  0.3117 16.2510 42.3453
v  9.8612 24.2294 25.8305
v  -16.8964 24.2294 46.8725
v  -11.8238 16.2510 32.9359
v  -14.3102 16.2510 39.7671
v  0.3117 24.2294 27.5143
v  -32.0289 24.2294 38.1357
v  -22.4957 16.2510 26.7745
v  -27.1685 16.2510 32.3433
v  -9.2377 24.2294 25.8305
v  -43.2607 24.2294 24.7502
v  -30.4166 16.2510 17.3347
v  -36.7123 16.2510 20.9695
v  -17.6353 24.2294 20.9821
v  -49.2369 24.2294 8.3304
v  -34.6312 16.2510 5.7551
v  -41.7904 16.2510 7.0174
v  -23.8682 24.2294 13.5540
v  -49.2369 24.2294 -9.1431
v  -34.6312 16.2510 -6.5677
v  -41.7904 16.2510 -7.8301
v  -27.1847 24.2294 4.4420
v  -43.2606 24.2294 -25.5629
v  -30.4166 16.2510 -18.1473
v  -36.7123 16.2510 -21.7821
v  -27.1847 24.2294 -5.2547
v  -32.0289 24.2294 -38.9484
v  -22.4957 16.2510 -27.5871
v  -27.1685 16.2510 -33.1560
v  -23.8682 24.2294 -14.3666
v  -16.8963 24.2294 -47.6851
v  -11.8238 16.2510 -33.7485
v  -14.3102 16.2510 -40.5797
v  -17.6353 24.2294 -21.7948
v  0.3117 24.2294 -50.7194
v  -9.2377 24.2294 -26.6431
v  32.6523 24.2294 38.1357
v  9.8612 24.2294 -26.6431
# 154 vertices

vn 0.1736 0.0000 -0.9848
vn 0.0000 1.0000 -0.0000
vn -0.0000 -0.0000 1.0000
vn -0.1736 0.0000 0.9848
vn 0.3420 0.0000 0.9397
vn 0.3420 -0.0000 0.9397
vn 0.5000 -0.0000 0.8660
vn -0.5000 -0.0000 -0.8660
vn -0.5000 0.0000 -0.8660
vn -0.0000 0.0000 1.0000
vn 0.1736 -0.0000 0.9848
vn -0.3420 -0.0000 -0.9397
vn -0.3420 0.0000 -0.9397
vn -0.1736 -0.0000 -0.9848
vn -0.3420 0.0000 0.9397
vn -0.3420 -0.0000 0.9397
vn -0.1736 -0.0000 0.9848
vn 0.0000 -0.0000 -1.0000
vn 0.1736 -0.0000 -0.9848
vn -0.6428 0.0000 0.7660
vn -0.6428 -0.0000 0.7660
vn -0.5000 0.0000 0.8660
vn 0.3420 -0.0000 -0.9397
vn 0.5000 0.0000 -0.8660
vn -0.8660 0.0000 0.5000
vn -0.7660 -0.0000 0.6428
vn 0.6428 -0.0000 -0.7660
vn 0.7660 0.0000 -0.6428
vn -0.9848 -0.0000 0.1736
vn -0.9848 0.0000 0.1736
vn -0.9397 0.0000 0.3420
vn 0.8660 -0.0000 -0.5000
vn 0.8660 0.0000 -0.5000
vn 0.9397 0.0000 -0.3420
vn -0.9848 0.0000 -0.1736
vn -1.0000 0.0000 -0.0000
vn 0.9848 0.0000 -0.1736
vn 1.0000 0.0000 0.0000
vn -0.8660 0.0000 -0.5000
vn -0.8660 -0.0000 -0.5000
vn -0.9397 0.0000 -0.3420
vn 0.9848 -0.0000 0.1736
vn 0.9848 0.0000 0.1736
vn 0.9397 0.0000 0.3420
vn -0.6428 0.0000 -0.7660
vn -0.7660 0.0000 -0.6428
vn 0.8660 -0.0000 0.5000
vn 0.8660 0.0000 0.5000
vn 0.7660 0.0000 0.6428
vn 0.6428 -0.0000 0.7660
vn 0.6428 0.0000 0.7660
vn -0.0000 0.0000 -1.0000
vn 0.0000 0.0000 -1.0000
vn -0.1736 0.0000 -0.9848
vn 0.1736 0.0000 0.9848
vn 0.1269 0.6823 -0.7199
vn -0.1269 0.6823 -0.7199
vn -0.3655 0.6823 -0.6331
vn -0.5600 0.6823 -0.4699
vn -0.6870 0.6823 -0.2500
vn -0.7311 0.6823 -0.0000
vn -0.6870 0.6823 0.2500
vn -0.5600 0.6823 0.4699
vn -0.3655 0.6823 0.6331
vn -0.1269 0.6823 0.7199
vn 0.1269 0.6823 0.7199
vn 0.3655 0.6823 0.6331
vn 0.5600 0.6823 -0.4699
vn 0.3655 0.6823 -0.6331
vn 0.6870 0.6823 -0.2500
vn 0.7311 0.6823 0.0000
vn 0.6870 0.6823 0.2500
vn 0.5600 0.6823 0.4699
vn 0.5000 0.0000 0.8660
vn 0.0000 -1.0000 -0.0000
vn 0.3420 0.0000 -0.9397
vn -0.8660 -0.0000 0.5000
vn 0.6428 0.0000 -0.7660
vn -0.9848 -0.0000 -0.1736
vn 0.9848 -0.0000 -0.1736
vn -0.6428 -0.0000 -0.7660
vn -0.0000 -0.0000 -1.0000
vn 0.1269 -0.6823 -0.7199
vn -0.1269 -0.6823 -0.7199
vn -0.3655 -0.6823 -0.6331
vn -0.5600 -0.6823 -0.4699
vn -0.6870 -0.6823 -0.2500
vn -0.7311 -0.6823 -0.0000
vn -0.6870 -0.6823 0.2500
vn -0.5600 -0.6823 0.4699
vn -0.3655 -0.6823 0.6331
vn -0.1269 -0.6823 0.7199
vn 0.1269 -0.6823 0.7199
vn 0.3655 -0.6823 0.6331
vn 0.5600 -0.6823 -0.4699
vn 0.3655 -0.6823 -0.6331
vn 0.6870 -0.6823 -0.2500
vn 0.7311 -0.6823 0.0000
vn 0.6870 -0.6823 0.2500
vn 0.5600 -0.6823 0.4699
# 100 vertex normals

vt 0.8152 0.9698 0.7124
vt 0.8152 0.9698 0.5000
vt 0.6433 0.9945 0.5000
vt 0.6051 0.9249 1.0000
vt 0.6051 0.8526 1.0000
vt 0.6623 0.8444 1.0000
vt 0.6927 0.9123 1.0000
vt 0.6051 0.7775 0.7124
vt 0.6051 0.7775 0.5000
vt 0.7005 0.7638 0.5000
vt 0.8152 0.0302 0.7124
vt 0.8152 0.0302 0.5000
vt 0.9664 0.1012 0.5000
vt 0.8607 0.1370 1.0000
vt 0.8036 0.1923 1.0000
vt 0.7533 0.1687 1.0000
vt 0.7836 0.1008 1.0000
vt 0.8242 0.2874 0.7124
vt 0.8242 0.2874 0.5000
vt 0.7403 0.2480 0.5000
vt 0.6051 0.0000 0.7124
vt 0.6051 0.0000 0.5000
vt 0.7770 0.0247 0.5000
vt 0.6051 0.1474 1.0000
vt 0.6051 0.0751 1.0000
vt 0.7217 0.2393 0.7124
vt 0.7217 0.2393 0.5000
vt 0.6263 0.2256 0.5000
vt 0.3949 0.0302 0.7124
vt 0.3949 0.0302 0.5000
vt 0.5668 0.0055 0.5000
vt 0.4569 0.1687 1.0000
vt 0.4265 0.1008 1.0000
vt 0.6051 0.2225 0.7124
vt 0.6051 0.2225 0.5000
vt 0.5097 0.2362 0.5000
vt 0.2101 0.1170 0.7124
vt 0.2101 0.1170 0.5000
vt 0.3613 0.0460 0.5000
vt 0.3266 0.2299 1.0000
vt 0.2695 0.1745 1.0000
vt 0.4885 0.2393 0.7124
vt 0.4885 0.2393 0.5000
vt 0.4046 0.2787 0.5000
vt 0.0730 0.2500 0.7124
vt 0.0730 0.2500 0.5000
vt 0.1852 0.1412 0.5000
vt 0.2298 0.3237 1.0000
vt 0.1529 0.2876 1.0000
vt 0.3859 0.2874 0.7124
vt 0.3859 0.2874 0.5000
vt 0.3236 0.3478 0.5000
vt 0.0000 0.4132 0.7124
vt 0.0000 0.4132 0.5000
vt 0.0597 0.2797 0.5000
vt 0.1784 0.4388 1.0000
vt 0.0909 0.4262 1.0000
vt 0.3098 0.3613 0.7124
vt 0.3098 0.3613 0.5000
vt 0.2767 0.4353 0.5000
vt 0.0000 0.5868 0.7124
vt 0.0000 0.5868 0.5000
vt 0.0000 0.4448 0.5000
vt 0.1784 0.5612 1.0000
vt 0.0909 0.5738 1.0000
vt 0.2693 0.4518 0.7124
vt 0.2693 0.4518 0.5000
vt 0.2693 0.5306 0.5000
vt 0.0730 0.7500 0.7124
vt 0.0730 0.7500 0.5000
vt 0.0133 0.6165 0.5000
vt 0.2298 0.6763 1.0000
vt 0.1529 0.7124 1.0000
vt 0.2693 0.5482 0.7124
vt 0.2693 0.5482 0.5000
vt 0.3024 0.6223 0.5000
vt 0.2101 0.8830 0.7124
vt 0.2101 0.8830 0.5000
vt 0.0979 0.7742 0.5000
vt 0.3266 0.7701 1.0000
vt 0.2695 0.8255 1.0000
vt 0.3098 0.6387 0.7124
vt 0.3098 0.6387 0.5000
vt 0.3721 0.6991 0.5000
vt 0.3949 0.9698 0.7124
vt 0.3949 0.9698 0.5000
vt 0.2438 0.8988 0.5000
vt 0.4569 0.8313 1.0000
vt 0.4265 0.8992 1.0000
vt 0.3859 0.7126 0.7124
vt 0.3859 0.7126 0.5000
vt 0.4698 0.7520 0.5000
vt 0.6051 1.0000 0.7124
vt 0.6051 1.0000 0.5000
vt 0.4332 0.9753 0.5000
vt 0.4885 0.7607 0.7124
vt 0.4885 0.7607 0.5000
vt 0.5838 0.7744 0.5000
vt 1.0000 0.1170 0.7124
vt 0.7217 0.7607 0.7124
vt 0.7217 0.7607 0.5000
vt 1.0000 0.1170 0.5000
vt 0.8152 0.9698 0.2876
vt 0.6051 0.8526 0.0000
vt 0.6051 0.9249 0.0000
vt 0.6623 0.8444 0.0000
vt 0.6927 0.9123 0.0000
vt 0.6051 0.7775 0.2876
vt 0.8152 0.0302 0.2876
vt 0.8036 0.1923 0.0000
vt 0.8607 0.1370 0.0000
vt 0.7533 0.1687 0.0000
vt 0.7836 0.1008 0.0000
vt 0.8242 0.2874 0.2876
vt 0.6051 0.0000 0.2876
vt 0.6051 0.1474 0.0000
vt 0.6051 0.0751 0.0000
vt 0.7217 0.2393 0.2876
vt 0.3949 0.0302 0.2876
vt 0.4569 0.1687 0.0000
vt 0.4265 0.1008 0.0000
vt 0.6051 0.2225 0.2876
vt 0.2101 0.1170 0.2876
vt 0.3266 0.2299 0.0000
vt 0.2695 0.1745 0.0000
vt 0.4885 0.2393 0.2876
vt 0.0730 0.2500 0.2876
vt 0.2298 0.3237 0.0000
vt 0.1529 0.2876 0.0000
vt 0.3859 0.2874 0.2876
vt 0.0000 0.4132 0.2876
vt 0.1784 0.4388 0.0000
vt 0.0909 0.4262 0.0000
vt 0.3098 0.3613 0.2876
vt 0.0000 0.5868 0.2876
vt 0.1784 0.5612 0.0000
vt 0.0909 0.5738 0.0000
vt 0.2693 0.4518 0.2876
vt 0.0730 0.7500 0.2876
vt 0.2298 0.6763 0.0000
vt 0.1529 0.7124 0.0000
vt 0.2693 0.5482 0.2876
vt 0.2101 0.8830 0.2876
vt 0.3266 0.7701 0.0000
vt 0.2695 0.8255 0.0000
vt 0.3098 0.6387 0.2876
vt 0.3949 0.9698 0.2876
vt 0.4569 0.8313 0.0000
vt 0.4265 0.8992 0.0000
vt 0.3859 0.7126 0.2876
vt 0.6051 1.0000 0.2876
vt 0.4885 0.7607 0.2876
vt 1.0000 0.1170 0.2876
vt 0.7217 0.7607 0.2876
# 154 texture coords

o Tube001
g Tube001
usemtl Material__47
f 1/1/1 2/2/1 3/3/1 
f 4/4/2 5/5/2 6/6/2 
f 6/6/2 7/7/2 4/4/2 
f 8/8/3 9/9/3 10/10/4 
f 11/11/5 12/12/6 13/13/7 
f 14/14/2 15/15/2 16/16/2 
f 16/16/2 17/17/2 14/14/2 
f 18/18/8 19/19/9 20/20/9 
f 21/21/10 22/22/3 23/23/11 
f 17/17/2 16/16/2 24/24/2 
f 24/24/2 25/25/2 17/17/2 
f 26/26/12 27/27/13 28/28/14 
f 29/29/15 30/30/16 31/31/17 
f 25/25/2 24/24/2 32/32/2 
f 32/32/2 33/33/2 25/25/2 
f 34/34/18 35/35/18 36/36/19 
f 37/37/20 38/38/21 39/39/22 
f 33/33/2 32/32/2 40/40/2 
f 40/40/2 41/41/2 33/33/2 
f 42/42/23 43/43/23 44/44/24 
f 45/45/25 46/46/25 47/47/26 
f 41/41/2 40/40/2 48/48/2 
f 48/48/2 49/49/2 41/41/2 
f 50/50/27 51/51/27 52/52/28 
f 53/53/29 54/54/30 55/55/31 
f 49/49/2 48/48/2 56/56/2 
f 56/56/2 57/57/2 49/49/2 
f 58/58/32 59/59/33 60/60/34 
f 61/61/35 62/62/35 63/63/36 
f 57/57/2 56/56/2 64/64/2 
f 64/64/2 65/65/2 57/57/2 
f 66/66/37 67/67/37 68/68/38 
f 69/69/39 70/70/40 71/71/41 
f 65/65/2 64/64/2 72/72/2 
f 72/72/2 73/73/2 65/65/2 
f 74/74/42 75/75/43 76/76/44 
f 77/77/45 78/78/45 79/79/46 
f 73/73/2 72/72/2 80/80/2 
f 80/80/2 81/81/2 73/73/2 
f 82/82/47 83/83/48 84/84/49 
f 85/85/13 86/86/13 87/87/9 
f 81/81/2 80/80/2 88/88/2 
f 88/88/2 89/89/2 81/81/2 
f 90/90/50 91/91/51 92/92/7 
f 93/93/52 94/94/53 95/95/54 
f 89/89/2 88/88/2 5/5/2 
f 5/5/2 4/4/2 89/89/2 
f 96/96/6 97/97/5 98/98/55 
f 1/1/56 93/93/56 4/4/56 
f 4/4/56 7/7/56 1/1/56 
f 93/93/57 85/85/57 89/89/57 
f 89/89/57 4/4/57 93/93/57 
f 85/85/58 77/77/58 81/81/58 
f 81/81/58 89/89/58 85/85/58 
f 77/77/59 69/69/59 73/73/59 
f 73/73/59 81/81/59 77/77/59 
f 69/69/60 61/61/60 65/65/60 
f 65/65/60 73/73/60 69/69/60 
f 61/61/61 53/53/61 57/57/61 
f 57/57/61 65/65/61 61/61/61 
f 53/53/62 45/45/62 49/49/62 
f 49/49/62 57/57/62 53/53/62 
f 45/45/63 37/37/63 41/41/63 
f 41/41/63 49/49/63 45/45/63 
f 37/37/64 29/29/64 33/33/64 
f 33/33/64 41/41/64 37/37/64 
f 29/29/65 21/21/65 25/25/65 
f 25/25/65 33/33/65 29/29/65 
f 21/21/66 11/11/66 17/17/66 
f 17/17/66 25/25/66 21/21/66 
f 11/11/67 99/99/67 14/14/67 
f 14/14/67 17/17/67 11/11/67 
f 99/99/68 18/18/68 15/15/68 
f 15/15/68 14/14/68 99/99/68 
f 18/18/58 26/26/58 16/16/58 
f 16/16/58 15/15/58 18/18/58 
f 26/26/57 34/34/57 24/24/57 
f 24/24/57 16/16/57 26/26/57 
f 34/34/56 42/42/56 32/32/56 
f 32/32/56 24/24/56 34/34/56 
f 42/42/69 50/50/69 40/40/69 
f 40/40/69 32/32/69 42/42/69 
f 50/50/68 58/58/68 48/48/68 
f 48/48/68 40/40/68 50/50/68 
f 58/58/70 66/66/70 56/56/70 
f 56/56/70 48/48/70 58/58/70 
f 66/66/71 74/74/71 64/64/71 
f 64/64/71 56/56/71 66/66/71 
f 74/74/72 82/82/72 72/72/72 
f 72/72/72 64/64/72 74/74/72 
f 82/82/73 90/90/73 80/80/73 
f 80/80/73 72/72/73 82/82/73 
f 90/90/67 96/96/67 88/88/67 
f 88/88/67 80/80/67 90/90/67 
f 96/96/66 8/8/66 5/5/66 
f 5/5/66 88/88/66 96/96/66 
f 8/8/65 100/100/65 6/6/65 
f 6/6/65 5/5/65 8/8/65 
f 100/100/72 1/1/72 7/7/72 
f 7/7/72 6/6/72 100/100/72 
f 3/3/1 94/94/53 1/1/1 
f 94/94/53 93/93/52 1/1/1 
f 10/10/4 101/101/4 8/8/3 
f 101/101/4 100/100/4 8/8/3 
f 13/13/7 102/102/7 11/11/5 
f 102/102/7 99/99/74 11/11/5 
f 20/20/9 27/27/13 18/18/8 
f 27/27/13 26/26/12 18/18/8 
f 23/23/11 12/12/6 21/21/10 
f 12/12/6 11/11/5 21/21/10 
f 28/28/14 35/35/18 26/26/12 
f 35/35/18 34/34/18 26/26/12 
f 31/31/17 22/22/3 29/29/15 
f 22/22/3 21/21/10 29/29/15 
f 36/36/19 43/43/23 34/34/18 
f 43/43/23 42/42/23 34/34/18 
f 39/39/22 30/30/16 37/37/20 
f 30/30/16 29/29/15 37/37/20 
f 44/44/24 51/51/27 42/42/23 
f 51/51/27 50/50/27 42/42/23 
f 47/47/26 38/38/21 45/45/25 
f 38/38/21 37/37/20 45/45/25 
f 52/52/28 59/59/33 50/50/27 
f 59/59/33 58/58/32 50/50/27 
f 55/55/31 46/46/25 53/53/29 
f 46/46/25 45/45/25 53/53/29 
f 60/60/34 67/67/37 58/58/32 
f 67/67/37 66/66/37 58/58/32 
f 63/63/36 54/54/30 61/61/35 
f 54/54/30 53/53/29 61/61/35 
f 68/68/38 75/75/43 66/66/37 
f 75/75/43 74/74/42 66/66/37 
f 71/71/41 62/62/35 69/69/39 
f 62/62/35 61/61/35 69/69/39 
f 76/76/44 83/83/48 74/74/42 
f 83/83/48 82/82/47 74/74/42 
f 79/79/46 70/70/40 77/77/45 
f 70/70/40 69/69/39 77/77/45 
f 84/84/49 91/91/51 82/82/47 
f 91/91/51 90/90/50 82/82/47 
f 87/87/9 78/78/45 85/85/13 
f 78/78/45 77/77/45 85/85/13 
f 92/92/7 97/97/5 90/90/50 
f 97/97/5 96/96/6 90/90/50 
f 95/95/54 86/86/13 93/93/52 
f 86/86/13 85/85/13 93/93/52 
f 98/98/55 9/9/3 96/96/6 
f 9/9/3 8/8/3 96/96/6 
f 2/2/1 103/103/19 3/3/1 
f 104/104/75 105/105/75 106/106/75 
f 107/107/75 106/106/75 105/105/75 
f 9/9/3 108/108/10 10/10/4 
f 12/12/6 109/109/6 13/13/7 
f 110/110/75 111/111/75 112/112/75 
f 113/113/75 112/112/75 111/111/75 
f 19/19/9 114/114/9 20/20/9 
f 22/22/3 115/115/3 23/23/11 
f 112/112/75 113/113/75 116/116/75 
f 117/117/75 116/116/75 113/113/75 
f 27/27/13 118/118/13 28/28/14 
f 30/30/16 119/119/16 31/31/17 
f 116/116/75 117/117/75 120/120/75 
f 121/121/75 120/120/75 117/117/75 
f 35/35/18 122/122/53 36/36/19 
f 38/38/21 123/123/21 39/39/22 
f 120/120/75 121/121/75 124/124/75 
f 125/125/75 124/124/75 121/121/75 
f 43/43/23 126/126/76 44/44/24 
f 46/46/25 127/127/77 47/47/26 
f 124/124/75 125/125/75 128/128/75 
f 129/129/75 128/128/75 125/125/75 
f 51/51/27 130/130/78 52/52/28 
f 54/54/30 131/131/30 55/55/31 
f 128/128/75 129/129/75 132/132/75 
f 133/133/75 132/132/75 129/129/75 
f 59/59/33 134/134/33 60/60/34 
f 62/62/35 135/135/79 63/63/36 
f 132/132/75 133/133/75 136/136/75 
f 137/137/75 136/136/75 133/133/75 
f 67/67/37 138/138/80 68/68/38 
f 70/70/40 139/139/40 71/71/41 
f 136/136/75 137/137/75 140/140/75 
f 141/141/75 140/140/75 137/137/75 
f 75/75/43 142/142/43 76/76/44 
f 78/78/45 143/143/81 79/79/46 
f 140/140/75 141/141/75 144/144/75 
f 145/145/75 144/144/75 141/141/75 
f 83/83/48 146/146/48 84/84/49 
f 86/86/13 147/147/12 87/87/9 
f 144/144/75 145/145/75 148/148/75 
f 149/149/75 148/148/75 145/145/75 
f 91/91/51 150/150/51 92/92/7 
f 94/94/53 151/151/82 95/95/54 
f 148/148/75 149/149/75 104/104/75 
f 105/105/75 104/104/75 149/149/75 
f 97/97/5 152/152/5 98/98/55 
f 151/151/83 103/103/83 105/105/83 
f 107/107/83 105/105/83 103/103/83 
f 147/147/84 151/151/84 149/149/84 
f 105/105/84 149/149/84 151/151/84 
f 143/143/85 147/147/85 145/145/85 
f 149/149/85 145/145/85 147/147/85 
f 139/139/86 143/143/86 141/141/86 
f 145/145/86 141/141/86 143/143/86 
f 135/135/87 139/139/87 137/137/87 
f 141/141/87 137/137/87 139/139/87 
f 131/131/88 135/135/88 133/133/88 
f 137/137/88 133/133/88 135/135/88 
f 127/127/89 131/131/89 129/129/89 
f 133/133/89 129/129/89 131/131/89 
f 123/123/90 127/127/90 125/125/90 
f 129/129/90 125/125/90 127/127/90 
f 119/119/91 123/123/91 121/121/91 
f 125/125/91 121/121/91 123/123/91 
f 115/115/92 119/119/92 117/117/92 
f 121/121/92 117/117/92 119/119/92 
f 109/109/93 115/115/93 113/113/93 
f 117/117/93 113/113/93 115/115/93 
f 153/153/94 109/109/94 111/111/94 
f 113/113/94 111/111/94 109/109/94 
f 114/114/95 153/153/95 110/110/95 
f 111/111/95 110/110/95 153/153/95 
f 118/118/85 114/114/85 112/112/85 
f 110/110/85 112/112/85 114/114/85 
f 122/122/84 118/118/84 116/116/84 
f 112/112/84 116/116/84 118/118/84 
f 126/126/83 122/122/83 120/120/83 
f 116/116/83 120/120/83 122/122/83 
f 130/130/96 126/126/96 124/124/96 
f 120/120/96 124/124/96 126/126/96 
f 134/134/95 130/130/95 128/128/95 
f 124/124/95 128/128/95 130/130/95 
f 138/138/97 134/134/97 132/132/97 
f 128/128/97 132/132/97 134/134/97 
f 142/142/98 138/138/98 136/136/98 
f 132/132/98 136/136/98 138/138/98 
f 146/146/99 142/142/99 140/140/99 
f 136/136/99 140/140/99 142/142/99 
f 150/150/100 146/146/100 144/144/100 
f 140/140/100 144/144/100 146/146/100 
f 152/152/94 150/150/94 148/148/94 
f 144/144/94 148/148/94 150/150/94 
f 108/108/93 152/152/93 104/104/93 
f 148/148/93 104/104/93 152/152/93 
f 154/154/92 108/108/92 106/106/92 
f 104/104/92 106/106/92 108/108/92 
f 103/103/99 154/154/99 107/107/99 
f 106/106/99 107/107/99 154/154/99 
f 94/94/53 3/3/1 103/103/19 
f 151/151/82 94/94/53 103/103/19 
f 101/101/4 10/10/4 108/108/10 
f 154/154/4 101/101/4 108/108/10 
f 102/102/7 13/13/7 109/109/6 
f 153/153/7 102/102/7 109/109/6 
f 27/27/13 20/20/9 114/114/9 
f 118/118/13 27/27/13 114/114/9 
f 12/12/6 23/23/11 115/115/3 
f 109/109/6 12/12/6 115/115/3 
f 35/35/18 28/28/14 118/118/13 
f 122/122/53 35/35/18 118/118/13 
f 22/22/3 31/31/17 119/119/16 
f 115/115/3 22/22/3 119/119/16 
f 43/43/23 36/36/19 122/122/53 
f 126/126/76 43/43/23 122/122/53 
f 30/30/16 39/39/22 123/123/21 
f 119/119/16 30/30/16 123/123/21 
f 51/51/27 44/44/24 126/126/76 
f 130/130/78 51/51/27 126/126/76 
f 38/38/21 47/47/26 127/127/77 
f 123/123/21 38/38/21 127/127/77 
f 59/59/33 52/52/28 130/130/78 
f 134/134/33 59/59/33 130/130/78 
f 46/46/25 55/55/31 131/131/30 
f 127/127/77 46/46/25 131/131/30 
f 67/67/37 60/60/34 134/134/33 
f 138/138/80 67/67/37 134/134/33 
f 54/54/30 63/63/36 135/135/79 
f 131/131/30 54/54/30 135/135/79 
f 75/75/43 68/68/38 138/138/80 
f 142/142/43 75/75/43 138/138/80 
f 62/62/35 71/71/41 139/139/40 
f 135/135/79 62/62/35 139/139/40 
f 83/83/48 76/76/44 142/142/43 
f 146/146/48 83/83/48 142/142/43 
f 70/70/40 79/79/46 143/143/81 
f 139/139/40 70/70/40 143/143/81 
f 91/91/51 84/84/49 146/146/48 
f 150/150/51 91/91/51 146/146/48 
f 78/78/45 87/87/9 147/147/12 
f 143/143/81 78/78/45 147/147/12 
f 97/97/5 92/92/7 150/150/51 
f 152/152/5 97/97/5 150/150/51 
f 86/86/13 95/95/54 151/151/82 
f 147/147/12 86/86/13 151/151/82 
f 9/9/3 98/98/55 152/152/5 
f 108/108/10 9/9/3 152/152/5 
# 296 faces

